<svg height='100px' width='82.114px'  fill="#29d4ff" xmlns="http://www.w3.org/2000/svg" xmlns:xlink="http://www.w3.org/1999/xlink" version="1.1" x="0px" y="0px" viewBox="0 0 82.114 100" enable-background="new 0 0 82.114 100" xml:space="preserve"><path d="M82.048,18.795c-0.013-0.043-0.03-0.082-0.047-0.125c-0.035-0.093-0.075-0.181-0.13-0.268  c-0.025-0.041-0.054-0.082-0.084-0.121c-0.058-0.078-0.125-0.149-0.198-0.213c-0.034-0.032-0.066-0.064-0.105-0.095  c-0.016-0.011-0.028-0.028-0.043-0.039c-0.1-0.069-0.205-0.121-0.315-0.164c-0.006-0.002-0.011-0.008-0.017-0.011L59.711,9.57V8.211  c0-0.334-0.036-0.658-0.109-0.973c-0.143-0.627-0.425-1.216-0.828-1.766c-0.201-0.274-0.432-0.539-0.688-0.793  C54.992,1.619,47.962,0,41.25,0h-0.001h-0.001l0,0c-0.002,0-0.002,0-0.002,0h-0.001h-0.001c-7.83,0-16.093,2.204-18.036,6.327  c-0.277,0.589-0.426,1.218-0.426,1.884v0.965l-21.77,8.203C1,17.384,0.991,17.392,0.98,17.399c-0.105,0.041-0.207,0.09-0.302,0.155  c-0.015,0.011-0.026,0.026-0.041,0.037c-0.04,0.03-0.072,0.062-0.108,0.095c-0.073,0.067-0.14,0.134-0.198,0.211  c-0.031,0.041-0.06,0.082-0.086,0.125c-0.052,0.082-0.093,0.168-0.128,0.261c-0.017,0.043-0.037,0.084-0.049,0.129  c-0.038,0.132-0.062,0.27-0.065,0.412C0.002,18.829,0,18.833,0,18.839c0,0,0,0,0,0.002v0.002v21.455  c0,0.004,0.002,0.009,0.002,0.014c0,0,0,0,0,0.002v0.002v21.456C0.002,61.776,0,61.781,0,61.787c0,0,0,0,0,0.002v0.003v21.454  c0,0.647,0.4,1.229,1.006,1.46l39.679,15.19c0.013,0.005,0.03,0.002,0.043,0.009c0.168,0.059,0.34,0.095,0.515,0.095  s0.345-0.036,0.509-0.093c0.015-0.004,0.03-0.002,0.043-0.009L81.098,85.09c0.607-0.23,1.011-0.812,1.011-1.464V62.171  c0-0.002,0-0.002,0-0.004c0-0.005,0.002-0.011,0.002-0.016V40.697c0-0.006,0.003-0.013,0.003-0.021V19.222  C82.114,19.075,82.087,18.933,82.048,18.795z M65.055,23.387l-23.807,8.971L5.972,18.854l16.81-6.333v5.753  c0,5.333,9.512,8.209,18.461,8.209c8.951,0,18.464-2.876,18.464-8.209v-5.353l16.431,6.291L65.055,23.387z M41.248,23.353v-6.931  c5.788-0.002,11.796-1.212,15.33-3.506v5.359C56.578,20.345,50.607,23.353,41.248,23.353z M55.965,6.973  c0.401,0.428,0.612,0.85,0.612,1.238c0,2.071-5.973,5.08-15.332,5.08c-9.36,0-15.333-3.008-15.333-5.08  c0-0.129,0.024-0.262,0.069-0.398c0.691-2.038,6.489-4.682,15.264-4.682C48.851,3.131,54.219,5.118,55.965,6.973z M78.98,82.544  L42.809,96.173l0.003-39.606l0.001-3.345V35.113L78.98,21.485l0.004-0.001l-0.002,21.455L78.98,82.544z"></path></svg>
